
PLOT

A young woman, whose mother died giving birth to her, is facing eternal life in either Heaven
or Hell. She must make the choice who to listen to, her guardian angel, whom she met when she
was a child, or the evil ones.
 
http://www.imdb.com/title/tt0466875/

Encoded By .......: BigPerm1828
Runtime ..........: 1h 27mn
File Size ........: .99GB
Resolution .......: 704x396
IMDb URL .........: http://www.imdb.com/title/tt0466875/
Genre ............: Horror | Thriller
Language .........: English
Video
ID : 0
Format : MPEG-4 Visual
Format profile : Advanced Simple@L5
Format settings, BVOP : Yes
Format settings, QPel : No
Format settings, GMC : No warppoints
Format settings, Matrix : Default (H.263)
Codec ID : XVID
Codec ID/Hint : XviD
Duration : 1h 27mn
Bit rate : 1 177 Kbps
Width : 704 pixels
Height : 396 pixels
Display aspect ratio : 16:9
Frame rate : 29.970 fps
Color space : YUV
Chroma subsampling : 4:2:0
Bit depth : 8 bits
Scan type : Progressive
Compression mode : Lossy
Bits/(Pixel*Frame) : 0.141
Stream size : 738 MiB (72%)
Writing library : XviD 1.2.1 (UTC 2008-12-04)

Audio
ID : 1
Format : AC-3
Format/Info : Audio Coding 3
Mode extension : CM (complete main)
Codec ID : 2000
Duration : 1h 27mn
Bit rate mode : Constant
Bit rate : 448 Kbps
Channel(s) : 6 channels
Channel positions : Front: L C R, Side: L R, LFE
Sampling rate : 48.0 KHz
Bit depth : 16 bits
Compression mode : Lossy
Video delay : 33ms
Stream size : 281 MiB (27%)
Alignment : Split accross interleaves
Interleave, duration : 500 ms (14.98 video frames)
Interleave, preload duration : 500 ms
 
http://leetleech.org/images/80723581055568172798.png
 
http://leetleech.org/images/59959259467250100690.png
 
http://leetleech.org/images/09105465928434080331.png
 
http://leetleech.org/images/47751897452815545630.png
 
http://leetleech.org/images/22160234850844400020.png